<?xml version="1.0" encoding="utf-8"?>
<svg xmlns="http://www.w3.org/2000/svg" viewBox="-0.02 0.031 16 15" width="16px" height="15px">
    <path d="M 14.98 5.031 L 10.98 5.031 L 10.98 1.031 C 10.98 0.478 10.533 0.031 9.98 0.031 L 5.98 0.031 C 5.427 0.031 4.98 0.478 4.98 1.031 L 4.98 5.031 L 0.98 5.031 C 0.427 5.031 -0.02 5.478 -0.02 6.031 L -0.02 9.031 C -0.02 9.584 0.427 10.031 0.98 10.031 L 4.98 10.031 L 4.98 14.031 C 4.98 14.584 5.427 15.031 5.98 15.031 L 9.98 15.031 C 10.533 15.031 10.98 14.584 10.98 14.031 L 10.98 10.031 L 14.98 10.031 C 15.533 10.031 15.98 9.584 15.98 9.031 L 15.98 6.031 C 15.98 5.478 15.533 5.031 14.98 5.031 Z" transform="matrix(1, 0, 0, 1, 1.7763568394002505e-15, 0)"/>
</svg>